<svg t="1765180295588" class="icon" viewBox="0 0 1234 1024" version="1.1" xmlns="http://www.w3.org/2000/svg" p-id="16364" width="200" height="200"><path d="M512 512m-512 0a512 512 0 1 0 1024 0 512 512 0 1 0-1024 0Z" fill="#F6F6F6" p-id="16365"></path><path d="M378.739726 308.60274v40.910904L497.972603 448.876712h-56.109589l56.088548 574.933918c-89.480767-2.412712-173.238356-27.774247-245.584658-70.424548L301.589041 448.876712h-56.109589l119.232877-99.363068V308.60274h14.027397z" fill="#DBDBDB" p-id="16366"></path><path d="M420.821918 119.232877h14.027397v84.164383h-14.027397zM168.328767 350.684932h14.027397v56.109589h-14.027397zM834.630137 666.30137h14.027397v56.109589h-14.027397zM820.60274 273.534247h14.027397v70.136986h-14.027397zM582.136986 575.123288h14.027398v84.164383h-14.027398z" fill="#1890FF" opacity=".655" p-id="16367"></path><path d="M308.60274 624.219178h35.068493v70.136986h-35.068493zM399.780822 820.60274h49.09589v70.136986h-49.09589z" fill="#FFFFFF" p-id="16368"></path><path d="M266.520548 540.054795h210.410959v28.054794H266.520548zM357.69863 462.90411h28.054795v49.09589h-28.054795z" fill="#DBDBDB" p-id="16369"></path><path d="M399.780822 462.90411h21.041096v49.09589h-21.041096z" fill="#FFFFFF" p-id="16370"></path><path d="M476.931507 487.452055l699.251726-169.857754c71.22411 98.640658 72.030685 231.606356 2.005918 331.102685l-2.005918 2.847562L476.931507 487.452055z" fill="#1890FF" opacity=".665" p-id="16371"></path><path d="M610.191781 112.219178c34.030466 0 63.340712 20.199452 76.603616 49.257206a49.09589 49.09589 0 1 0 0 69.807342C673.546521 260.348493 644.22926 280.547945 610.198795 280.547945c-46.479781 0-84.164384-37.684603-84.164384-84.164383s37.684603-84.164384 84.164384-84.164384z" fill="#1890FF" opacity=".798" p-id="16372"></path><path d="M385.753425 154.30137h84.164383v14.027397H385.753425zM147.287671 371.726027h56.109589v14.027398h-56.109589zM813.589041 687.342466h56.109589v14.027397h-56.109589zM792.547945 301.589041h70.136987v14.027397h-70.136987zM547.068493 610.191781h84.164384v14.027397H547.068493z" fill="#1890FF" opacity=".655" p-id="16373"></path></svg>